<svg width="76" height="64" viewBox="0 0 76 64" fill="none" xmlns="http://www.w3.org/2000/svg">
<path fill-rule="evenodd" clip-rule="evenodd" d="M35.3949 1.9127C36.1662 2.24212 36.8254 2.79974 37.2891 3.51504C37.7528 4.23034 38.0002 5.07121 38 5.93132V58.1212C37.9998 58.9812 37.7521 59.8219 37.2881 60.537C36.8242 61.252 36.1648 61.8093 35.3934 62.1384C34.622 62.4675 33.7732 62.5536 32.9543 62.3859C32.1354 62.2182 31.3832 61.8041 30.7927 61.1961L15.1409 45.0737H4.22222C3.10242 45.0737 2.02848 44.6155 1.23666 43.7999C0.44484 42.9843 0 41.878 0 40.7246V23.3279C0 22.1745 0.44484 21.0683 1.23666 20.2526C2.02848 19.437 3.10242 18.9788 4.22222 18.9788H15.1409L30.7927 2.85647C31.3831 2.24788 32.1356 1.83336 32.9548 1.66537C33.774 1.49737 34.6232 1.58345 35.3949 1.9127ZM57.6629 1.27337C58.4547 0.458033 59.5284 0 60.648 0C61.7676 0 62.8413 0.458033 63.6331 1.27337C71.2711 9.13665 76 20.0182 76 32.0219C76 44.0256 71.2711 54.9115 63.6331 62.7791C62.8368 63.5714 61.7702 64.0097 60.6632 63.9998C59.5561 63.9899 58.4972 63.5325 57.7143 62.7262C56.9315 61.9198 56.4874 60.829 56.4778 59.6886C56.4682 58.5483 56.8938 57.4497 57.6629 56.6294C60.805 53.4027 63.2967 49.5679 64.9945 45.3455C66.6922 41.1231 67.5626 36.5965 67.5556 32.0263C67.5626 27.456 66.6922 22.9295 64.9945 18.7071C63.2967 14.4847 60.805 10.6498 57.6629 7.42308C56.8713 6.60749 56.4267 5.50147 56.4267 4.34823C56.4267 3.19499 56.8713 2.08896 57.6629 1.27337ZM45.7182 13.5728C46.1104 13.1684 46.576 12.8476 47.0886 12.6288C47.6012 12.4099 48.1506 12.2972 48.7054 12.2972C49.2603 12.2972 49.8097 12.4099 50.3223 12.6288C50.8349 12.8476 51.3005 13.1684 51.6927 13.5728C54.0487 15.9934 55.917 18.8698 57.1902 22.0367C58.4633 25.2037 59.1161 28.5986 59.1111 32.0263C59.1161 35.454 58.4633 38.8489 57.1902 42.0158C55.917 45.1827 54.0487 48.0591 51.6927 50.4797C50.9004 51.2958 49.8259 51.7543 48.7054 51.7543C47.585 51.7543 46.5105 51.2958 45.7182 50.4797C44.926 49.6637 44.4809 48.5568 44.4809 47.4027C44.4809 46.2486 44.926 45.1418 45.7182 44.3257C47.2904 42.7135 48.537 40.7966 49.3864 38.6856C50.2357 36.5746 50.6708 34.3113 50.6667 32.0263C50.6708 29.7412 50.2357 27.4779 49.3864 25.3669C48.537 23.2559 47.2904 21.339 45.7182 19.7268C45.3257 19.3229 45.0142 18.8433 44.8017 18.3153C44.5893 17.7873 44.4799 17.2214 44.4799 16.6498C44.4799 16.0783 44.5893 15.5123 44.8017 14.9843C45.0142 14.4564 45.3257 13.9767 45.7182 13.5728Z" fill="#5B6787"/>
</svg>
